<?xml version="1.0" standalone="no"?><!DOCTYPE svg PUBLIC "-//W3C//DTD SVG 1.1//EN" "http://www.w3.org/Graphics/SVG/1.1/DTD/svg11.dtd"><svg t="1715323809147" class="icon" viewBox="0 0 1024 1024" version="1.1" xmlns="http://www.w3.org/2000/svg" p-id="14082" xmlns:xlink="http://www.w3.org/1999/xlink" width="200" height="200"><path d="M498.408594 190.537143a53.906286 53.906286 0 0 0-20.626285 25.6 62.756571 62.756571 0 0 0 1.609142 41.179428c4.242286 13.897143 12.8 26.038857 24.356572 34.742858a44.617143 44.617143 0 0 0 19.968 7.753142 36.278857 36.278857 0 0 0 20.918857-3.657142 40.374857 40.374857 0 0 0 17.334857-19.017143 69.924571 69.924571 0 0 0 5.705143-25.380572 86.016 86.016 0 0 0-4.169143-32.987428 55.369143 55.369143 0 0 0-21.357714-28.452572 41.691429 41.691429 0 0 0-16.822857-6.290285 35.986286 35.986286 0 0 0-26.989715 6.948571" fill="#FFFFFF" p-id="14083"></path><path d="M810.436023 637.293714a462.555429 462.555429 0 0 0-26.038857-90.404571 259.437714 259.437714 0 0 0-32.256-61.074286c-13.604571-18.066286-30.72-33.353143-44.032-51.638857-7.021714-9.508571-12.946286-20.041143-20.260572-29.476571l-8.704-18.358858c-8.777143-19.090286-16.749714-38.765714-27.136-56.905142a182.857143 182.857143 0 0 0-5.12-8.411429c-1.316571-17.554286-3.145143-34.962286-4.096-52.516571a494.08 494.08 0 0 0-8.777143-104.886858 170.788571 170.788571 0 0 0-61.659428-90.697142A157.257143 157.257143 0 0 0 482.097737 43.885714a141.165714 141.165714 0 0 0-68.388571 15.798857c-22.235429 12.141714-40.228571 30.866286-51.419429 53.540572-10.532571 22.820571-16.091429 47.689143-16.310857 72.850286-0.877714 24.649143 1.462857 49.298286 2.340571 73.947428 0.950857 25.6 0.438857 51.346286 2.56 76.946286 0.731429 8.192 1.682286 16.457143 1.609143 24.722286 0 4.096-0.219429 8.265143-0.292571 12.434285l-0.365714 0.804572a525.165714 525.165714 0 0 1-36.937143 54.564571c-9.362286 11.922286-18.870857 23.771429-28.452572 35.474286-12.361143 13.897143-22.820571 29.403429-31.158857 46.006857a328.338286 328.338286 0 0 0-13.604571 44.470857l-0.365715 1.243429a345.673143 345.673143 0 0 1-19.675428 50.614857L219.51488 611.913143c-4.754286 9.728-9.654857 19.456-14.774857 29.037714l-5.924572 11.044572a179.931429 179.931429 0 0 0-9.874285 20.626285 68.169143 68.169143 0 0 0-3.657143 13.165715 69.339429 69.339429 0 0 0 1.755428 28.379428 149.211429 149.211429 0 0 0 10.678858 26.697143c1.462857 2.925714 3.145143 5.851429 4.681142 8.777143l1.462858 2.048c1.536 2.779429 3.145143 5.485714 4.827428 8.118857l0.219429 0.365714a234.057143 234.057143 0 0 0 5.924571 8.923429l0.292572 0.365714c2.048 2.925714 4.169143 5.851429 6.290285 8.630857 8.192 31.597714 22.966857 61.074286 43.446857 86.528-3.145143 5.485714-6.070857 11.117714-9.216 16.530286a250.88 250.88 0 0 0-27.428571 51.931429 62.390857 62.390857 0 0 0-2.121143 29.037714 41.691429 41.691429 0 0 0 14.336 25.014857c5.12 3.876571 11.044571 6.582857 17.408 8.045714 6.217143 1.316571 12.653714 1.901714 19.090286 1.609143 24.356571-1.828571 48.420571-6.582857 71.68-14.116571 13.897143-3.657143 28.013714-6.948571 42.203428-9.801143 14.774857-3.437714 29.769143-5.485714 44.909715-6.144 3.657143 0 7.460571 0 11.117714-0.365714 10.24 1.097143 20.626286 1.462857 30.939429 1.097142l3.803428-0.219428c2.706286 0.292571 5.339429 0.512 8.045714 0.658286a527.36 527.36 0 0 1 101.302858 14.848c23.990857 7.241143 48.64 11.922286 73.581714 14.043428 6.582857 0.365714 13.165714-0.219429 19.675428-1.462857a43.666286 43.666286 0 0 0 17.773715-8.192 41.764571 41.764571 0 0 0 14.409143-25.014857 62.171429 62.171429 0 0 0-2.194286-29.184 241.444571 241.444571 0 0 0-27.867429-51.712c-4.022857-6.656-7.68-13.531429-11.702857-20.187429 17.042286-19.017143 31.963429-39.716571 44.617143-61.805714a60.708571 60.708571 0 0 0 22.454857-2.925714 94.354286 94.354286 0 0 0 47.396572-35.474286 54.125714 54.125714 0 0 0 7.899428-16.237714c7.533714-11.702857 12.726857-24.868571 15.213714-38.619429a193.097143 193.097143 0 0 0-1.682285-68.681143z" fill="#020204" p-id="14084"></path><path d="M389.425737 327.314286a39.204571 39.204571 0 0 0-7.094857 14.848 78.848 78.848 0 0 0-2.048 16.457143c0.365714 10.971429-0.585143 22.089143-2.706286 32.914285a101.302857 101.302857 0 0 1-17.042285 30.939429c-12.8 16.091429-22.893714 34.084571-29.769143 53.394286a94.866286 94.866286 0 0 0-3.510857 36.864 389.851429 389.851429 0 0 0-34.304 62.025142c-14.628571 32.768-24.137143 67.657143-27.867429 103.424-4.681143 43.885714 1.682286 88.210286 18.578286 128.950858 12.288 29.403429 31.158857 55.588571 55.003428 76.653714a180.297143 180.297143 0 0 0 201.801143 25.088c25.234286-14.701714 48.274286-32.914286 68.534857-54.125714 13.019429-11.849143 24.649143-25.088 34.742857-39.497143a221.622857 221.622857 0 0 0 29.037715-96.475429 314.514286 314.514286 0 0 0-18.505143-174.299428 192.365714 192.365714 0 0 0-34.742857-49.956572 273.700571 273.700571 0 0 0-22.162286-74.386286c-7.826286-16.969143-17.334857-33.133714-24.649143-50.468571-2.925714-7.094857-5.558857-14.409143-8.850286-21.284571a63.780571 63.780571 0 0 0-12.946285-19.017143 53.394286 53.394286 0 0 0-20.260572-11.702857 88.137143 88.137143 0 0 0-23.186285-4.022858c-15.798857-0.731429-31.597714 1.316571-47.177143 0.658286-12.653714-0.512-25.014857-2.706286-37.522286-1.974857a57.782857 57.782857 0 0 0-18.285714 3.876571 36.937143 36.937143 0 0 0-15.140572 10.898286m5.12-136.557714a25.6 25.6 0 0 0-15.798857 7.021714 35.620571 35.620571 0 0 0-9.216 14.848 89.965714 89.965714 0 0 0-2.048 35.108572c0.219429 10.605714 2.121143 21.211429 5.558857 31.305142a40.96 40.96 0 0 0 8.484572 13.385143 27.501714 27.501714 0 0 0 28.379428 7.460572 32.036571 32.036571 0 0 0 12.653715-7.68c5.12-5.266286 8.777143-11.702857 10.752-18.797715a90.258286 90.258286 0 0 0-1.682286-48.566857 60.635429 60.635429 0 0 0-13.824-23.405714 38.985143 38.985143 0 0 0-10.532572-7.826286 25.965714 25.965714 0 0 0-12.8-2.852571m104.009143 0a53.906286 53.906286 0 0 0-20.626285 25.6 62.756571 62.756571 0 0 0 1.609142 41.179428c4.242286 13.897143 12.8 26.038857 24.356572 34.742858a44.617143 44.617143 0 0 0 19.968 7.753142 36.278857 36.278857 0 0 0 20.918857-3.657142 40.374857 40.374857 0 0 0 17.334857-19.017143 69.924571 69.924571 0 0 0 5.705143-25.380572 86.016 86.016 0 0 0-4.169143-32.987428 55.369143 55.369143 0 0 0-21.357714-28.452572 41.691429 41.691429 0 0 0-16.822857-6.290285 35.986286 35.986286 0 0 0-26.989715 6.948571" fill="#FFFFFF" p-id="14085"></path><path d="M519.620023 218.185143a21.211429 21.211429 0 0 0-9.801143 3.218286 25.6 25.6 0 0 0-7.314286 7.168 37.156571 37.156571 0 0 0-5.924571 19.602285 41.398857 41.398857 0 0 0 2.048 15.36 28.964571 28.964571 0 0 0 8.630857 12.580572 24.429714 24.429714 0 0 0 29.622857 1.389714 26.989714 26.989714 0 0 0 8.265143-9.508571 37.302857 37.302857 0 0 0 0.219429-33.865143 30.500571 30.500571 0 0 0-16.237715-14.628572 22.966857 22.966857 0 0 0-9.508571-1.462857" fill="#020204" p-id="14086"></path><path d="M394.472594 190.537143a25.6 25.6 0 0 0-15.798857 7.021714 35.620571 35.620571 0 0 0-9.216 14.848 89.965714 89.965714 0 0 0-2.048 35.108572c0.219429 10.605714 2.121143 21.211429 5.558857 31.305142a40.96 40.96 0 0 0 8.484572 13.385143 27.501714 27.501714 0 0 0 28.379428 7.460572 32.036571 32.036571 0 0 0 12.653715-7.68c5.12-5.266286 8.777143-11.702857 10.752-18.797715a90.258286 90.258286 0 0 0-1.682286-48.566857 60.635429 60.635429 0 0 0-13.824-23.405714 38.985143 38.985143 0 0 0-10.532572-7.826286 25.965714 25.965714 0 0 0-12.8-2.852571" fill="#FFFFFF" p-id="14087"></path><path d="M380.28288 239.177143c-1.462857 7.314286-1.024 14.994286 1.243429 22.162286 1.755429 4.681143 4.388571 8.996571 7.826285 12.580571 2.194286 2.486857 4.754286 4.461714 7.68 5.997714 2.925714 1.462857 6.290286 1.901714 9.508572 1.170286a13.970286 13.970286 0 0 0 7.314285-4.900571 24.137143 24.137143 0 0 0 4.022858-8.045715 44.397714 44.397714 0 0 0-0.438858-26.112 34.011429 34.011429 0 0 0-10.020571-16.237714 19.748571 19.748571 0 0 0-8.045714-4.242286 14.116571 14.116571 0 0 0-9.142857 0.731429 15.579429 15.579429 0 0 0-7.094858 7.168 32.548571 32.548571 0 0 0-2.925714 9.728" fill="#020204" p-id="14088"></path><path d="M366.532023 331.337143a8.996571 8.996571 0 0 0 1.024 2.706286c0.950857 1.462857 2.194286 2.779429 3.657143 3.730285 1.462857 1.024 2.925714 1.828571 4.388571 2.779429 7.533714 5.12 14.189714 11.556571 19.529143 19.017143 6.582857 10.24 14.701714 19.382857 24.064 27.282285a50.761143 50.761143 0 0 0 24.137143 8.630858c10.020571 0.731429 20.260571-0.438857 29.915428-3.510858 8.996571-2.56 17.627429-6.363429 25.6-11.264a268.434286 268.434286 0 0 1 44.617143-29.257142c3.657143-1.316571 7.460571-2.267429 10.971429-3.949715 3.657143-1.462857 6.656-4.169143 8.557714-7.606857a36.717714 36.717714 0 0 0 2.048-10.971428c0.585143-3.949714 1.828571-7.826286 2.56-11.702858a19.748571 19.748571 0 0 0-0.950857-11.776 15.213714 15.213714 0 0 0-6.875429-6.948571 23.698286 23.698286 0 0 0-9.508571-2.340571c-6.582857 0.219429-13.165714 0.877714-19.748571 1.974857-8.777143 0.731429-17.554286-0.365714-26.331429 0-10.825143 0.292571-21.650286 2.779429-32.548571 3.145143-12.434286 0.585143-24.868571-1.316571-37.302858-1.828572-5.412571-0.292571-10.825143 0-16.091428 0.731429a37.302857 37.302857 0 0 0-14.994286 5.851428c-4.169143 3.218286-8.045714 6.729143-11.776 10.459429a29.915429 29.915429 0 0 1-6.509714 4.388571 16.749714 16.749714 0 0 1-7.606857 1.828572 12.361143 12.361143 0 0 0-4.022857 0 5.485714 5.485714 0 0 0-2.121143 1.316571 34.742857 34.742857 0 0 0-4.461715 7.168" fill="#D99A03" p-id="14089"></path><path d="M393.887451 303.762286a192.365714 192.365714 0 0 0-12.873142 8.484571 15.798857 15.798857 0 0 0-5.485715 5.558857 13.165714 13.165714 0 0 0-1.024 5.485715 49.883429 49.883429 0 0 1 0 5.632c-0.146286 1.243429-0.512 2.56-0.585143 3.803428 0 0.658286 0 1.316571 0.219429 1.901714a4.022857 4.022857 0 0 0 0.877714 1.682286 4.827429 4.827429 0 0 0 2.194286 1.243429l2.413714 0.585143c3.803429 1.097143 7.314286 3.145143 10.24 5.851428 2.925714 2.706286 5.558857 5.705143 8.704 8.265143a49.005714 49.005714 0 0 0 30.208 9.801143c10.825143-0.219429 21.504-1.755429 31.963429-4.461714 8.192-1.755429 16.310857-3.949714 24.283428-6.729143 12.214857-4.534857 23.478857-11.337143 33.353143-19.894857 4.242286-4.096 8.777143-7.899429 13.604572-11.264 4.388571-2.779429 9.508571-4.608 13.897143-7.314286a8.923429 8.923429 0 0 0 1.097142-0.731429 3.437714 3.437714 0 0 0 0.950858-1.097143 3.145143 3.145143 0 0 0 0-2.340571 6.363429 6.363429 0 0 0-1.024-2.048 14.336 14.336 0 0 0-1.828572-1.828571 29.769143 29.769143 0 0 0-17.261714-5.997715c-6.363429-0.512-12.434286 0-18.505143-1.170285a121.051429 121.051429 0 0 1-16.822857-4.900572 117.540571 117.540571 0 0 0-60.635429-3.291428 125.074286 125.074286 0 0 0-37.814857 14.848" fill="#604405" p-id="14090"></path><path d="M392.497737 288.768c-6.363429 4.388571-12.068571 9.508571-16.896 15.506286a36.571429 36.571429 0 0 0-6.729143 11.190857 85.065143 85.065143 0 0 0-2.779428 13.970286 6.582857 6.582857 0 0 0 0.292571 1.901714 4.315429 4.315429 0 0 0 1.024 1.682286c0.731429 0.731429 1.755429 1.243429 2.852572 1.462857l3.145142 0.292571c4.754286 0.731429 9.289143 2.706286 13.165715 5.632 4.022857 2.779429 7.68 5.924571 11.702857 8.484572 9.289143 5.558857 19.748571 8.484571 30.500571 8.704a136.045714 136.045714 0 0 0 31.744-3.145143c8.338286-1.609143 16.530286-3.876571 24.502857-6.948572a147.017143 147.017143 0 0 0 33.353143-19.821714c4.754286-3.510857 9.289143-7.314286 13.604572-11.264 1.462857-1.462857 2.852571-2.925714 4.388571-4.169143a15.872 15.872 0 0 1 5.12-2.925714 19.236571 19.236571 0 0 1 9.142857-0.219429 33.645714 33.645714 0 0 0 6.802286 0.731429 10.093714 10.093714 0 0 0 3.364571-0.438857 6.875429 6.875429 0 0 0 2.779429-2.048 6.582857 6.582857 0 0 0 1.462857-4.169143 8.557714 8.557714 0 0 0-1.243428-4.315429 14.701714 14.701714 0 0 0-6.948572-5.558857 68.534857 68.534857 0 0 0-11.849143-3.510857 170.496 170.496 0 0 1-35.766857-13.019429c-5.632-2.852571-11.117714-5.924571-16.749714-8.923428a98.669714 98.669714 0 0 0-17.773714-7.899429 69.924571 69.924571 0 0 0-42.788572 1.901715c-15.36 5.339429-28.964571 14.628571-39.497143 27.062857" fill="#F5BD0C" p-id="14091"></path><path d="M470.980023 272.237714c0.877714 3.072 5.485714 2.56 8.118857 3.949715 2.633143 1.462857 4.169143 3.949714 6.802286 4.242285 2.633143 0.219429 6.363429-0.950857 6.729143-3.657143 0.438857-3.510857-4.388571-5.705143-7.314286-7.021714a14.628571 14.628571 0 0 0-12.8-0.219428c-0.877714 0.512-1.828571 1.682286-1.462857 2.706285z m-43.885714-1.682285c-3.364571-1.243429-8.996571 5.193143-7.314286 8.557714 0.585143 0.877714 2.121143 2.048 3.145143 1.462857 1.024-0.585143 2.852571-4.315429 4.534857-5.558857 1.316571-0.877714 1.024-4.022857-0.292572-4.461714z" fill="#CD8907" p-id="14092"></path><path d="M895.135451 881.737143a56.027429 56.027429 0 0 1-9.289142 15.652571 101.302857 101.302857 0 0 1-32.621715 23.113143 647.021714 647.021714 0 0 0-60.708571 32.109714c-12.873143 8.484571-24.868571 18.139429-35.84 28.818286-9.142857 9.508571-18.870857 18.285714-29.184 26.477714-10.678857 7.899429-23.113143 13.165714-36.278857 15.36a86.966857 86.966857 0 0 1-47.177143-7.168 56.612571 56.612571 0 0 1-26.258286-20.553142 61.732571 61.732571 0 0 1-7.314286-32.694858 340.845714 340.845714 0 0 1 7.168-59.684571 508.781714 508.781714 0 0 0 8.484572-140.214857 68.754286 68.754286 0 0 1 0-15.140572c0.731429-10.24 9.362286-18.285714 19.675428-17.993142a70.656 70.656 0 0 1 13.970286 1.170285c10.971429 1.243429 21.942857 3.145143 32.621714 5.632 6.729143 1.755429 13.312 4.169143 20.041143 5.997715 11.190857 3.218286 22.966857 4.315429 34.523429 3.145142 12.214857-2.779429 24.576-4.754286 37.083428-5.851428a54.857143 54.857143 0 0 1 15.067429 2.706286 32.182857 32.182857 0 0 1 13.604571 7.533714c2.779429 2.925714 4.900571 6.363429 6.363429 10.166857a61.366857 61.366857 0 0 1 3.803429 17.261714c0.219429 5.339429 0.658286 10.605714 1.389714 15.798857 1.901714 8.484571 5.851429 16.384 11.629714 22.893715 5.705143 6.363429 11.995429 12.288 18.797714 17.554285 6.582857 5.558857 13.165714 11.044571 20.333715 15.798858 3.291429 2.267429 6.802286 4.388571 9.947428 6.948571a31.378286 31.378286 0 0 1 8.045715 8.923429 22.308571 22.308571 0 0 1 2.194285 15.798857" fill="#F5BD0C" p-id="14093"></path><path d="M895.135451 881.737143a56.027429 56.027429 0 0 1-9.289142 15.652571 101.302857 101.302857 0 0 1-32.621715 23.113143 647.021714 647.021714 0 0 0-60.708571 32.109714c-12.873143 8.484571-24.868571 18.139429-35.84 28.818286-9.142857 9.508571-18.870857 18.285714-29.184 26.477714-10.678857 7.899429-23.113143 13.165714-36.278857 15.36a86.966857 86.966857 0 0 1-47.177143-7.168 56.612571 56.612571 0 0 1-26.258286-20.553142 61.732571 61.732571 0 0 1-7.314286-32.694858 340.845714 340.845714 0 0 1 7.168-59.684571 508.781714 508.781714 0 0 0 8.484572-140.214857 68.754286 68.754286 0 0 1 0-15.140572c0.731429-10.24 9.362286-18.285714 19.675428-17.993142a70.656 70.656 0 0 1 13.970286 1.170285c10.971429 1.243429 21.942857 3.145143 32.621714 5.632 6.729143 1.755429 13.312 4.169143 20.041143 5.997715 11.190857 3.218286 22.966857 4.315429 34.523429 3.145142 12.214857-2.779429 24.576-4.754286 37.083428-5.851428a54.857143 54.857143 0 0 1 15.067429 2.706286 32.182857 32.182857 0 0 1 13.604571 7.533714c2.779429 2.925714 4.900571 6.363429 6.363429 10.166857a61.366857 61.366857 0 0 1 3.803429 17.261714c0.219429 5.339429 0.658286 10.605714 1.389714 15.798857 1.901714 8.484571 5.851429 16.384 11.629714 22.893715 5.705143 6.363429 11.995429 12.288 18.797714 17.554285 6.582857 5.558857 13.165714 11.044571 20.333715 15.798858 3.291429 2.267429 6.802286 4.388571 9.947428 6.948571a31.378286 31.378286 0 0 1 8.045715 8.923429 22.308571 22.308571 0 0 1 2.194285 15.798857M207.592594 713.874286a29.988571 29.988571 0 0 1 16.822857-1.536 41.545143 41.545143 0 0 1 15.872 6.582857c9.069714 7.021714 16.896 15.433143 23.113143 25.014857 15.433143 21.211429 30.281143 42.934857 43.739429 65.462857 10.898286 18.285714 20.918857 37.083429 33.499428 54.272 8.192 11.190857 17.554286 21.577143 25.819429 32.694857 8.630857 10.971429 15.140571 23.405714 19.236571 36.717715 4.827429 17.554286 2.925714 36.352-5.339428 52.662857a69.485714 69.485714 0 0 1-25.673143 27.501714 66.121143 66.121143 0 0 1-36.352 9.508571 178.176 178.176 0 0 1-57.563429-18.285714c-38.253714-15.140571-79.725714-19.968-119.149714-31.817143-12.068571-3.657143-23.990857-7.899429-36.132571-11.264a107.008 107.008 0 0 1-16.091429-5.12 27.721143 27.721143 0 0 1-12.580571-10.605714 23.990857 23.990857 0 0 1-3.145143-12.653714 39.058286 39.058286 0 0 1 2.56-12.653715c2.925714-8.118857 7.753143-15.506286 10.971428-23.625142 4.827429-13.385143 6.656-27.648 5.485715-41.837715-0.731429-14.116571-3.145143-28.16-4.022857-42.276571a73.216 73.216 0 0 1 0.658285-19.017143 28.452571 28.452571 0 0 1 23.917715-24.283429c5.705143-1.024 11.556571-1.462857 17.408-1.097142 5.851429 0.292571 11.702857 0.292571 17.554285 0a40.082286 40.082286 0 0 0 16.676572-4.681143 39.570286 39.570286 0 0 0 11.995428-11.337143c3.145143-4.608 5.997714-9.362286 8.630857-14.262857a90.697143 90.697143 0 0 1 8.996572-13.897143 34.377143 34.377143 0 0 1 13.019428-10.166857" fill="#F5BD0C" p-id="14094"></path><path d="M207.519451 713.801143a29.988571 29.988571 0 0 1 16.822858-1.536 41.545143 41.545143 0 0 1 15.872 6.582857c9.069714 7.021714 16.896 15.433143 23.113142 25.014857 15.433143 21.211429 30.281143 42.934857 43.739429 65.462857 10.898286 18.285714 20.918857 37.083429 33.499429 54.272 8.192 11.190857 17.554286 21.577143 25.819428 32.694857 8.630857 10.971429 15.140571 23.405714 19.236572 36.717715 4.827429 17.554286 2.925714 36.352-5.339429 52.662857a69.485714 69.485714 0 0 1-25.673143 27.501714 66.121143 66.121143 0 0 1-36.352 9.508572 178.176 178.176 0 0 1-57.563428-18.285715c-38.253714-15.140571-79.725714-19.968-119.149715-31.817143-12.068571-3.657143-23.990857-7.899429-36.132571-11.264a107.008 107.008 0 0 1-16.091429-5.12 27.721143 27.721143 0 0 1-12.580571-10.605714 23.990857 23.990857 0 0 1-3.145143-12.653714 39.058286 39.058286 0 0 1 2.56-12.653714c2.925714-8.118857 7.753143-15.579429 10.971429-23.625143 4.827429-13.385143 6.656-27.648 5.485714-41.837715-0.731429-14.116571-3.145143-28.16-4.022857-42.276571a73.216 73.216 0 0 1 0.658285-19.017143 28.452571 28.452571 0 0 1 23.917715-24.283428c5.705143-1.024 11.556571-1.462857 17.408-1.097143 5.851429 0.292571 11.702857 0.292571 17.554285 0a40.082286 40.082286 0 0 0 16.676572-4.681143 39.570286 39.570286 0 0 0 11.995428-11.337143c3.145143-4.608 5.997714-9.362286 8.630858-14.262857a90.697143 90.697143 0 0 1 8.996571-13.897143 34.377143 34.377143 0 0 1 13.019429-10.166857" fill="#F5BD0C" p-id="14095"></path><path d="M215.857737 723.017143a25.819429 25.819429 0 0 1 15.36-0.950857 35.84 35.84 0 0 1 13.750857 6.729143c7.826286 6.802286 14.336 14.921143 19.309715 23.990857 13.092571 21.211429 25.892571 42.642286 37.888 64.512 8.630857 16.822857 18.358857 32.914286 29.184 48.493714 7.460571 10.020571 15.945143 19.236571 23.625142 29.110857 7.899429 9.728 13.897143 20.845714 17.773715 32.768a64.585143 64.585143 0 0 1-4.973715 46.957714 60.928 60.928 0 0 1-56.978285 32.914286 186.148571 186.148571 0 0 1-52.662857-16.237714c-33.353143-12.141714-69.485714-13.750857-103.643429-23.186286-12.288-3.291429-24.210286-7.753143-36.571429-10.825143a111.177143 111.177143 0 0 1-16.091428-4.681143 26.258286 26.258286 0 0 1-12.946286-10.459428 22.820571 22.820571 0 0 1-2.779428-12.068572 37.741714 37.741714 0 0 1 2.706285-12.214857c2.925714-7.753143 7.68-14.848 10.678857-22.674285 4.096-11.995429 5.558857-24.722286 4.242286-37.302858-0.877714-12.726857-3.145143-25.161143-3.803428-37.814857a64.438857 64.438857 0 0 1 0.731428-16.822857 28.964571 28.964571 0 0 1 7.606857-14.921143 29.549714 29.549714 0 0 1 16.457143-7.606857c6.070857-0.731429 12.214857-0.731429 18.285714 0 6.144 0.731429 12.214857 1.024 18.358858 0.877714a34.377143 34.377143 0 0 0 17.408-5.339428 34.742857 34.742857 0 0 0 10.678857-12.653714 133.851429 133.851429 0 0 0 6.582857-15.213715 72.045714 72.045714 0 0 1 7.314286-14.848 28.672 28.672 0 0 1 12.580571-10.678857" fill="#F5BD0C" p-id="14096"></path></svg>